<svg xmlns="http://www.w3.org/2000/svg" viewBox="0 5.699999809265137 412.1000061035156 67.25" data-asc="1.009"><defs/><g><g><g transform="translate(0, 0)"><path d="M12.90 15.35Q13.80 14.85 14.20 14.85Q14.60 14.85 14.60 15.20Q14.10 17.95 14.10 18.40Q14.10 20.60 15.90 30.55Q17.70 40.50 17.70 42.47Q17.70 44.45 17.30 46.02Q16.90 47.60 16.07 49.30Q15.25 51.00 13.55 52.12Q11.85 53.25 9.45 53.25Q7.05 53.25 3.53 49.92Q0 46.60 0 44.65Q0 44.00 0.38 43.62Q0.75 43.25 1.85 42.17Q2.95 41.10 3.58 40.37Q4.20 39.65 4.55 39.65Q4.75 39.65 6.15 41.77Q7.55 43.90 9.57 46.02Q11.60 48.15 13.40 48.15Q15.20 48.15 15.20 43.55Q15.20 39.95 13.47 30.97Q11.75 22.00 11.75 19.45Q11.75 16.90 12.90 15.35M2.30 13.85Q4.85 12.25 13 8.97Q21.15 5.70 23.50 5.70Q24.35 5.70 24.35 6.57Q24.35 7.45 23.80 8.82Q23.25 10.20 22.85 10.85Q22.35 11.50 20.25 12.20Q15.90 13.55 10.13 15.85Q4.35 18.15 2.93 19.10Q1.50 20.05 1.07 20.05Q0.65 20.05 0.65 19.12Q0.65 18.20 1.28 16.15Q1.90 14.10 2.30 13.85ZM44.30 45.60Q43.30 47.40 40.53 49.72Q37.75 52.05 35.65 52.05Q31.70 52.05 31.50 47.20Q31.50 46.75 31.30 46.75Q31.20 46.75 30.28 47.95Q29.35 49.15 27.73 50.37Q26.10 51.60 24.38 51.60Q22.65 51.60 21.63 50.55Q20.60 49.50 20.60 47.72Q20.60 45.95 21.65 43.05Q22.70 40.15 23.70 40.15Q24.20 40.20 24.53 40.65Q24.85 41.10 24.88 41.65Q24.90 42.20 25.10 43.00Q25.30 43.80 26.20 44.77Q27.10 45.75 28.55 45.75Q31.05 45.75 32.65 41.45Q32.65 41.40 32.75 41.17Q32.85 40.95 32.90 40.82Q32.95 40.70 33.05 40.47Q33.15 40.25 33.25 40.15Q33.95 39.60 34.40 40.15Q34.70 40.55 34.75 41.60Q34.75 43.20 36.13 44.72Q37.50 46.25 39.70 46.25Q41.90 46.25 43.20 44.95Q43.70 44.35 44.20 44.35Q44.55 44.35 44.55 44.75Q44.55 45.15 44.30 45.60ZM56 47.25Q56 47.25 56.20 47.25Q56.40 47.25 57.30 46.65Q58.20 46.05 58.75 45.45L59.30 44.90Q59.65 44.55 60 44.55Q60.60 44.55 60.60 45.25Q60.60 45.50 60.55 45.65Q59.25 48.80 55.75 50.72Q52.25 52.65 49.50 52.65Q44.15 52.65 44.15 48.45Q44.15 47.90 45.45 46.70Q46.75 45.50 47.35 45.20Q47.75 44.90 47.98 44.90Q48.20 44.90 48.35 45.10Q48.50 45.30 48.70 45.60Q48.90 45.90 49.05 46.10Q49.20 46.30 49.45 46.65Q49.70 47.00 49.98 47.22Q50.25 47.45 50.60 47.65Q51.25 48.15 51.98 48.15Q52.70 48.15 52.70 47.30Q52.70 45.20 51.15 43.67Q49.60 42.15 48.55 42.15Q48.30 42.15 48.05 42.45L46.20 44.30Q45.75 44.75 45.55 44.75Q44.80 44.75 44.80 44.10Q50.15 37.55 51.15 37.55Q52.55 37.55 54.35 39.45Q56.15 41.35 56.15 43.25Q56.15 45.05 55.88 46.00Q55.60 46.95 55.60 47.10Q55.60 47.25 56 47.25ZM49.80 35.10Q49.80 34.10 51.40 33.60Q53.85 32.55 59.40 30.35Q60.40 22.75 62.40 22.75Q63.70 22.75 63.70 26.90Q63.70 28.10 63.65 28.70Q71.25 25.80 73.85 25.15Q76.45 24.50 78 24.50Q80.35 24.50 80.35 26.20Q80.35 26.75 79.65 27.10Q76.55 28.65 75.80 28.65Q75.65 28.65 75.30 28.42Q74.95 28.20 74.50 28.20Q74.05 28.20 72.65 28.55Q69.80 29.30 63.30 31.45Q62.70 35.35 61.55 37.05Q61.75 42.75 63.05 44.75Q63.65 45.70 64.78 46.40Q65.90 47.10 67.55 47.10Q69.20 47.10 70.80 45.60Q71.10 45.30 71.30 45.30Q71.70 45.30 71.70 45.95Q71.70 48.05 68.90 50.17Q66.10 52.30 63.55 52.30Q58.50 52.30 58.50 44.10Q58.50 38.95 59.10 33Q54.95 34.60 52.98 35.60Q51 36.60 50.65 36.60Q50.30 36.60 50.05 36.10Q49.80 35.60 49.80 35.10ZM87.05 22.75Q85.65 22.75 84.92 26.00Q84.20 29.25 84.20 32.60Q84.20 35.95 84.90 39.20Q88.35 34.05 88.35 25.40Q88.35 24.15 87.98 23.45Q87.60 22.75 87.05 22.75M91.90 47.05Q92.70 47.05 94.20 46.45Q95.70 45.85 96.25 45.85Q96.80 45.85 96.80 46.35Q96.80 47.50 93.68 49.72Q90.55 51.95 88.65 51.95Q86.75 51.95 85.55 51.35Q84.35 50.75 83.63 49.57Q82.90 48.40 82.45 47.25Q82 46.10 81.85 44.45Q81.55 41.90 81.55 38.50Q81.55 35.10 82.45 30.35Q83.35 25.60 84.98 22.30Q86.60 19.00 88.40 18.90Q88.90 18.95 89.23 19.07Q89.55 19.20 89.88 19.92Q90.20 20.65 90.20 22.00Q90.20 34.30 85.35 40.90Q87.35 47.05 91.90 47.05ZM96.03 34.90Q96.03 34.90 95.64 34.47Q95.25 34.05 95.25 32.80Q95.25 31.55 96.03 30.70Q96.80 29.85 97.95 29.85Q99.10 29.85 99.88 30.70Q100.65 31.55 100.65 32.80Q100.65 34.05 99.88 34.90Q99.10 35.75 97.95 35.75Q96.80 35.75 96.03 34.90M106.40 45.80Q106.90 45.40 107.30 45.40Q108 45.40 108 46.30Q108 47.55 104.90 50.02Q101.80 52.50 99.55 52.50Q97.30 52.50 96.05 50.90Q94.80 49.30 94.80 46.77Q94.80 44.25 95.65 41.90Q96.50 39.55 97.35 39.55Q97.75 39.60 97.75 40.77Q97.75 41.95 98.10 43.35Q98.45 44.75 99.63 46.02Q100.80 47.30 102.67 47.30Q104.55 47.30 106.40 45.80ZM108.30 39.00Q109.50 36.00 110.55 32.13Q111.60 28.25 111.60 26.40Q111.60 24.55 111.28 23.70Q110.95 22.85 110.50 22.85Q108.85 22.85 108.30 32.05L108.30 39.00M121.60 44.35Q121.35 44.35 121.13 44.62Q120.90 44.90 120.55 45.27Q120.20 45.65 119.05 46.27Q117.90 46.90 116.70 46.90Q114.55 46.90 113.03 45.17Q111.50 43.45 111.50 42.57Q111.50 41.70 111.25 41.60Q111 41.60 110.60 42.35Q109.55 44.30 109.55 46.92Q109.55 49.55 110.98 51.02Q112.40 52.50 114 52.50Q116.75 52.50 119.50 49.62Q122.25 46.75 122.25 45.30Q122.25 44.35 121.60 44.35M108.35 41.40L108.35 41.70Q108.35 42.30 108.48 42.30Q108.60 42.30 108.80 42.10Q109.90 38.95 111.55 36.62Q113.20 34.30 115.15 34.30Q116.90 34.30 116.90 36.65Q116.90 37.50 116.08 38.97Q115.25 40.45 114.50 40.45Q114.20 40.45 113.90 39.97Q113.60 39.50 112.85 39.50Q111.40 39.50 110.40 40.77Q109.40 42.05 108.95 44.05Q108.25 47.45 108.25 50.55Q108.25 52.05 106.90 52.05Q106.65 52.05 106.65 51.60Q106.85 48.35 106.85 43.45L106.85 36.35Q106.85 27.10 107.50 23.75Q108.25 20.05 109.40 18.95Q110.10 18.30 111.05 18.30Q113.75 18.30 113.75 22.35Q113.75 26.40 111.88 32.30Q110 38.20 108.35 41.40ZM124.10 44.70Q124.95 44.40 125.83 42.77Q126.70 41.15 126.70 40.10Q126.70 39.05 125.90 39.00Q124.70 39.00 124.20 40.07Q123.70 41.15 123.70 42.42Q123.70 43.70 124.10 44.70M128.40 47.95Q129.80 47.95 130.72 47.32Q131.65 46.70 132.47 45.70Q133.30 44.70 133.78 44.70Q134.25 44.70 134.25 45.15Q134.25 45.45 134.05 45.85Q132.40 48.50 129.95 50.52Q127.50 52.55 124.75 52.55Q122 52.55 120.78 51.22Q119.55 49.90 119.55 47.70Q119.55 43.90 122.40 39.92Q125.25 35.95 128.30 35.95Q129.90 35.95 129.90 37.25Q129.90 39.00 128.80 40.87Q127.70 42.75 124.75 45.95Q126.10 47.95 128.40 47.95ZM156.60 44.05L156.40 45.45Q156.40 46.35 157.18 47.32Q157.95 48.30 159 48.30Q159.80 48.30 160.30 47.95Q161.40 47.20 161.68 46.92Q161.95 46.65 162.57 46.65Q163.20 46.65 163.20 47.10Q163.20 47.60 160.85 50.25Q160.10 51.10 158.65 52.05Q157.20 53.00 156.07 53.00Q154.95 53.00 154.38 52.62Q153.80 52.25 153.55 51.45Q153.25 50.35 153.25 48.75Q153.25 48.55 153 48.55Q152.75 48.55 151.85 49.55Q149.05 52.45 147.32 52.45Q145.60 52.45 144.68 51.55Q143.75 50.65 143.75 49.25Q143.75 46.80 145.05 44.57Q146.35 42.35 148.15 41.00Q152.15 38.05 154.35 38.05Q157.65 38.15 157.65 40.40Q157.65 41.20 156.95 41.97Q156.25 42.75 155.65 42.75Q155.05 42.75 154 41.70Q152.95 40.65 151.70 40.65Q150.45 40.65 149.65 41.67Q148.85 42.70 148.85 44.30Q148.85 46.90 151.60 46.90Q152.70 46.90 153.43 46.35Q154.15 45.80 154.45 45.15Q155.30 43.45 156 43.45Q156.60 43.45 156.60 44.05ZM184.25 55.30Q182.70 57.60 182.25 59.40Q181.80 61.20 181.80 63.70Q181.80 66.20 183.15 66.35Q184.30 66.35 184.30 59.25Q184.30 56.80 184.25 55.30M184.25 53.55Q184.15 51.95 184.15 48.65Q184.05 48.65 183.42 49.27Q182.80 49.90 182.03 50.62Q181.25 51.35 180.07 51.97Q178.90 52.60 177.35 52.60Q175.80 52.60 174.82 51.65Q173.85 50.70 173.85 49.10Q173.85 45.65 177.22 41.97Q180.60 38.30 184.60 38.30Q185.85 38.30 186.63 38.87Q187.40 39.45 187.40 40.35Q187.40 41.15 186.80 41.85Q185.75 43.05 184.15 43.05Q183.55 43.05 183.55 42.70Q183.55 42.50 183.67 42.25Q183.80 42.00 183.80 41.60Q183.80 40.60 182.85 40.60Q181.30 40.60 180.25 41.95Q179.20 43.30 179.20 44.60Q179.20 45.90 179.82 46.52Q180.45 47.15 181.25 47.15Q182.05 47.15 183.10 46.40Q184.15 45.65 184.45 44.70Q184.80 43.40 186 43.40Q186.45 43.40 186.45 44.07Q186.45 44.75 186.13 45.92Q185.80 47.10 185.67 48.02Q185.55 48.95 185.55 51.95Q188.60 48.35 191.10 46.05Q191.65 45.50 192.20 45.50Q192.75 45.50 192.75 45.87Q192.75 46.25 192.20 46.75Q187.85 50.70 185.60 53.50Q185.70 57.10 185.70 59.35Q185.70 65.50 184.78 69.22Q183.85 72.95 181.25 72.95Q179.60 72.95 178.70 71.38Q177.80 69.80 177.80 67.10Q177.80 61.65 184.25 53.55ZM190.82 34.90Q190.82 34.90 190.44 34.47Q190.05 34.05 190.05 32.80Q190.05 31.55 190.82 30.70Q191.60 29.85 192.75 29.85Q193.90 29.85 194.67 30.70Q195.45 31.55 195.45 32.80Q195.45 34.05 194.67 34.90Q193.90 35.75 192.75 35.75Q191.60 35.75 190.82 34.90M201.20 45.80Q201.70 45.40 202.10 45.40Q202.80 45.40 202.80 46.30Q202.80 47.55 199.70 50.02Q196.60 52.50 194.35 52.50Q192.10 52.50 190.85 50.90Q189.60 49.30 189.60 46.77Q189.60 44.25 190.45 41.90Q191.30 39.55 192.15 39.55Q192.55 39.60 192.55 40.77Q192.55 41.95 192.90 43.35Q193.25 44.75 194.42 46.02Q195.60 47.30 197.47 47.30Q199.35 47.30 201.20 45.80ZM201.80 43.90L200.45 44.00Q199.55 44.00 199.55 43.55Q199.55 42.85 201.32 40.87Q203.10 38.90 204.50 38.90Q205.10 38.90 205.57 39.25Q206.05 39.60 206.10 40.10L206.35 42.35Q206.50 42.55 206.65 42.55Q206.80 42.55 207.45 41.75Q209.55 39.30 211.20 39.30Q211.85 39.30 212.25 39.50Q212.65 39.70 213.17 40.27Q213.70 40.85 213.75 40.90Q214.10 40.75 214.45 40.75Q215.00 40.75 215.00 41.42Q215.00 42.10 213.05 43.92Q211.10 45.75 210.15 45.75Q209.20 45.75 208.55 44.90Q207.90 44.05 207.60 44.05Q206.45 44.05 206.45 45.25Q206.45 46.15 207.27 48.30Q208.10 50.45 208.10 50.85Q208.10 51.85 207.07 52.42Q206.05 53.00 204.82 53.00Q203.60 53.00 202.85 52.60Q202.10 52.20 202.10 51.50L203.50 45.45Q203.50 43.90 201.80 43.90ZM219.85 22.75Q218.45 22.75 217.72 26.00Q217.00 29.25 217.00 32.60Q217.00 35.95 217.70 39.20Q221.15 34.05 221.15 25.40Q221.15 24.15 220.77 23.45Q220.40 22.75 219.85 22.75M224.70 47.05Q225.50 47.05 227.00 46.45Q228.50 45.85 229.05 45.85Q229.60 45.85 229.60 46.35Q229.60 47.50 226.47 49.72Q223.35 51.95 221.45 51.95Q219.55 51.95 218.35 51.35Q217.15 50.75 216.42 49.57Q215.70 48.40 215.25 47.25Q214.80 46.10 214.65 44.45Q214.35 41.90 214.35 38.50Q214.35 35.10 215.25 30.35Q216.15 25.60 217.77 22.30Q219.40 19.00 221.20 18.90Q221.70 18.95 222.02 19.07Q222.35 19.20 222.67 19.92Q223.00 20.65 223.00 22.00Q223.00 34.30 218.15 40.90Q220.15 47.05 224.70 47.05ZM261.70 43.15Q261.70 43.15 262.15 42.67Q262.60 42.20 263.15 42.20Q263.70 42.20 263.70 42.77Q263.70 43.35 263.30 43.75Q260.80 47.10 256.63 49.82Q252.45 52.55 248.12 52.55Q243.80 52.55 241.52 49.77Q239.25 47.00 239.25 42.40Q239.25 37.80 241.35 32.38Q243.45 26.95 246.82 22.27Q250.20 17.60 255.02 14.47Q259.85 11.35 264.80 11.35Q269.10 11.35 269.10 15.30Q269.10 18.20 266.95 22.05Q264.80 25.90 261.50 28.72Q258.20 31.55 255.40 31.55Q253.90 31.55 253.90 29.95Q253.90 28.75 255.30 26.95Q256.70 25.15 257.90 25.15Q258.55 25.15 258.40 26.30Q258.25 27.45 259.50 27.45Q261.30 27.45 262.88 24.70Q264.45 21.95 264.45 19.55Q264.45 14.60 260.35 14.60Q256.60 14.60 253.12 18.00Q249.65 21.40 247.62 26.27Q245.60 31.15 245.60 35.65Q245.60 40.15 247.77 42.87Q249.95 45.60 254.55 45.60Q256.50 45.60 258.30 44.95Q260.80 44.10 261.70 43.15ZM274.60 45.20Q272.25 45.20 270.90 44.00Q269.55 42.80 269.35 40.95Q268.55 41.55 268.55 43.17Q268.55 44.80 269.47 46.02Q270.40 47.25 271.77 47.25Q273.15 47.25 273.88 46.55Q274.60 45.85 274.60 45.20M276.55 41.85Q276.70 42.30 276.93 42.30Q277.15 42.30 277.70 42.02Q278.25 41.75 278.65 41.75Q279.05 41.75 279.05 42.25Q279.05 42.75 277.97 43.90Q276.90 45.05 276.15 45.05Q275.10 47.90 272.68 50.32Q270.25 52.75 267.70 52.75Q265.90 52.75 264.70 51.57Q263.50 50.40 263.50 48.12Q263.50 45.85 265.40 43.17Q267.30 40.50 269.30 40.50L269.30 40.30Q269.30 39.20 270.05 38.52Q270.80 37.85 271.90 37.85Q275.30 37.85 276.55 41.85ZM289.60 47.25Q289.60 47.25 289.80 47.25Q290.00 47.25 290.90 46.65Q291.80 46.05 292.35 45.45L292.90 44.90Q293.25 44.55 293.60 44.55Q294.20 44.55 294.20 45.25Q294.20 45.50 294.15 45.65Q292.85 48.80 289.35 50.72Q285.85 52.65 283.10 52.65Q277.75 52.65 277.75 48.45Q277.75 47.90 279.05 46.70Q280.35 45.50 280.95 45.20Q281.35 44.90 281.57 44.90Q281.80 44.90 281.95 45.10Q282.10 45.30 282.30 45.60Q282.50 45.90 282.65 46.10Q282.80 46.30 283.05 46.65Q283.30 47.00 283.57 47.22Q283.85 47.45 284.20 47.65Q284.85 48.15 285.57 48.15Q286.30 48.15 286.30 47.30Q286.30 45.20 284.75 43.67Q283.20 42.15 282.15 42.15Q281.90 42.15 281.65 42.45L279.80 44.30Q279.35 44.75 279.15 44.75Q278.40 44.75 278.40 44.10Q283.75 37.55 284.75 37.55Q286.15 37.55 287.95 39.45Q289.75 41.35 289.75 43.25Q289.75 45.05 289.47 46.00Q289.20 46.95 289.20 47.10Q289.20 47.25 289.60 47.25ZM283.40 35.10Q283.40 34.10 285 33.60Q287.45 32.55 293 30.35Q294 22.75 296 22.75Q297.30 22.75 297.30 26.90Q297.30 28.10 297.25 28.70Q304.85 25.80 307.45 25.15Q310.05 24.50 311.60 24.50Q313.95 24.50 313.95 26.20Q313.95 26.75 313.25 27.10Q310.15 28.65 309.40 28.65Q309.25 28.65 308.90 28.42Q308.55 28.20 308.10 28.20Q307.65 28.20 306.25 28.55Q303.40 29.30 296.90 31.45Q296.30 35.35 295.15 37.05Q295.35 42.75 296.65 44.75Q297.25 45.70 298.38 46.40Q299.50 47.10 301.15 47.10Q302.80 47.10 304.40 45.60Q304.70 45.30 304.90 45.30Q305.30 45.30 305.30 45.95Q305.30 48.05 302.50 50.17Q299.70 52.30 297.15 52.30Q292.10 52.30 292.10 44.10Q292.10 38.95 292.70 33Q288.55 34.60 286.57 35.60Q284.60 36.60 284.25 36.60Q283.90 36.60 283.65 36.10Q283.40 35.60 283.40 35.10ZM316.70 44.05L316.50 45.45Q316.50 46.35 317.27 47.32Q318.05 48.30 319.10 48.30Q319.90 48.30 320.40 47.95Q321.50 47.20 321.77 46.92Q322.05 46.65 322.67 46.65Q323.30 46.65 323.30 47.10Q323.30 47.60 320.95 50.25Q320.20 51.10 318.75 52.05Q317.30 53.00 316.17 53.00Q315.05 53.00 314.47 52.62Q313.90 52.25 313.65 51.45Q313.35 50.35 313.35 48.75Q313.35 48.55 313.10 48.55Q312.85 48.55 311.95 49.55Q309.15 52.45 307.42 52.45Q305.70 52.45 304.77 51.55Q303.85 50.65 303.85 49.25Q303.85 46.80 305.15 44.57Q306.45 42.35 308.25 41.00Q312.25 38.05 314.45 38.05Q317.75 38.15 317.75 40.40Q317.75 41.20 317.05 41.97Q316.35 42.75 315.75 42.75Q315.15 42.75 314.10 41.70Q313.05 40.65 311.80 40.65Q310.55 40.65 309.75 41.67Q308.95 42.70 308.95 44.30Q308.95 46.90 311.70 46.90Q312.80 46.90 313.52 46.35Q314.25 45.80 314.55 45.15Q315.40 43.45 316.10 43.45Q316.70 43.45 316.70 44.05ZM343.25 41.80L343.20 35.50Q343.20 28.90 343.50 25.55Q343.80 22.20 343.80 22.00Q344.35 20.25 345.90 20.25Q346.25 20.25 346.25 20.65Q346.25 20.70 346.15 21.45Q345.25 28.45 345.25 39.95Q345.25 41.35 345.65 46.35Q346.05 51.35 346.00 52.17Q345.95 53.00 345.20 53.00Q343.60 52.85 341.67 50.50Q339.75 48.15 338.10 44.55Q336.45 40.95 335.35 36.15Q334.25 31.35 334.25 26.75Q334.25 22.15 336.15 17.15Q337.25 14.35 338.77 12.05Q340.30 9.75 342.80 8.22Q345.30 6.70 348.30 6.70Q353.85 6.70 357.32 11.52Q360.80 16.35 360.80 22.50Q360.80 29.70 356.15 33.35Q353.65 35.35 350.10 35.75Q349.75 35.85 349.75 36.15Q349.75 37.15 351.62 39.77Q353.50 42.40 356.67 44.97Q359.85 47.55 362.70 47.80Q364.55 47.80 365.90 46.35Q366.40 45.75 366.70 45.75Q367.60 46.30 367.60 46.90Q367.60 47.55 366.35 48.87Q365.10 50.20 363.95 51.05Q361.30 53.00 357.97 53.00Q354.65 53.00 352.27 51.00Q349.90 49.00 348.65 45.75Q346.20 39.40 346.20 32.35Q346.20 31.60 346.75 31.60Q346.95 31.65 347.45 32.05Q348.90 33.20 350.85 33.40Q353.10 33.40 354.27 31.47Q355.45 29.55 355.45 26.37Q355.45 23.20 354.30 19.87Q353.15 16.55 350.55 14.05Q347.95 11.55 344.55 11.55Q341.90 11.55 339.22 15.50Q336.55 19.45 336.55 24.95Q336.55 29.15 338.20 34.27Q339.85 39.40 343.00 43.45L343.05 43.45Q343.20 43.45 343.20 43.05L343.25 41.80ZM368.77 34.90Q368.77 34.90 368.39 34.47Q368.00 34.05 368.00 32.80Q368.00 31.55 368.77 30.70Q369.55 29.85 370.70 29.85Q371.85 29.85 372.62 30.70Q373.40 31.55 373.40 32.80Q373.40 34.05 372.62 34.90Q371.85 35.75 370.70 35.75Q369.55 35.75 368.77 34.90M379.15 45.80Q379.65 45.40 380.05 45.40Q380.75 45.40 380.75 46.30Q380.75 47.55 377.65 50.02Q374.55 52.50 372.30 52.50Q370.05 52.50 368.80 50.90Q367.55 49.30 367.55 46.77Q367.55 44.25 368.40 41.90Q369.25 39.55 370.10 39.55Q370.50 39.60 370.50 40.77Q370.50 41.95 370.85 43.35Q371.20 44.75 372.37 46.02Q373.55 47.30 375.42 47.30Q377.30 47.30 379.15 45.80ZM383.60 43.97Q383.60 43.97 383.60 44.86Q383.60 45.75 384.65 46.97Q385.70 48.20 387.42 48.20Q389.15 48.20 390.27 47.77Q391.40 47.35 392.00 46.92Q392.60 46.50 392.90 46.50Q393.35 46.50 393.35 46.95Q393.35 48.50 390.45 50.62Q387.55 52.75 383.70 52.75Q381.25 52.75 380.02 51.52Q378.80 50.30 378.80 48.30Q378.80 44.70 381.87 41.12Q384.95 37.55 388.95 37.55Q389.90 37.55 390.47 38.12Q391.05 38.70 391.05 39.77Q391.05 40.85 389.82 42.17Q388.60 43.50 387.35 43.50Q387.00 43.50 387.00 43.15Q387.00 42.80 387.37 42.40Q387.75 42.00 387.75 41.42Q387.75 40.85 387.37 40.30Q387.00 39.75 386.55 39.75Q385.20 39.75 384.40 40.97Q383.60 42.20 383.60 43.97ZM405.50 44.05L405.30 45.45Q405.30 46.35 406.07 47.32Q406.85 48.30 407.90 48.30Q408.70 48.30 409.20 47.95Q410.30 47.20 410.57 46.92Q410.85 46.65 411.47 46.65Q412.10 46.65 412.10 47.10Q412.10 47.60 409.75 50.25Q409.00 51.10 407.55 52.05Q406.10 53.00 404.97 53.00Q403.85 53.00 403.27 52.62Q402.70 52.25 402.45 51.45Q402.15 50.35 402.15 48.75Q402.15 48.55 401.90 48.55Q401.65 48.55 400.75 49.55Q397.95 52.45 396.22 52.45Q394.50 52.45 393.57 51.55Q392.65 50.65 392.65 49.25Q392.65 46.80 393.95 44.57Q395.25 42.35 397.05 41.00Q401.05 38.05 403.25 38.05Q406.55 38.15 406.55 40.40Q406.55 41.20 405.85 41.97Q405.15 42.75 404.55 42.75Q403.95 42.75 402.90 41.70Q401.85 40.65 400.60 40.65Q399.35 40.65 398.55 41.67Q397.75 42.70 397.75 44.30Q397.75 46.90 400.50 46.90Q401.60 46.90 402.32 46.35Q403.05 45.80 403.35 45.15Q404.20 43.45 404.90 43.45Q405.50 43.45 405.50 44.05Z"/></g><g transform="translate(0, 72.5)"><path d=""/></g></g></g></svg>